<mxfile host="app.diagrams.net" agent="Mozilla/5.0 (Windows NT 10.0; Win64; x64) AppleWebKit/537.36 (KHTML, like Gecko) Chrome/136.0.0.0 YaBrowser/25.6.0.0 Safari/537.36" version="28.0.6">
  <diagram name="Страница — 1" id="GnPmfrHl46HtTAqTT8Ax">
    <mxGraphModel dx="1869" dy="668" grid="1" gridSize="10" guides="1" tooltips="1" connect="1" arrows="1" fold="1" page="1" pageScale="1" pageWidth="827" pageHeight="1169" math="0" shadow="0">
      <root>
        <mxCell id="0" />
        <mxCell id="1" parent="0" />
        <mxCell id="wDMASdnVmy-ZMWx5fMmQ-13" style="edgeStyle=orthogonalEdgeStyle;rounded=0;orthogonalLoop=1;jettySize=auto;html=1;exitX=0.5;exitY=1;exitDx=0;exitDy=0;entryX=0.5;entryY=0;entryDx=0;entryDy=0;" edge="1" parent="1" source="wDMASdnVmy-ZMWx5fMmQ-1" target="wDMASdnVmy-ZMWx5fMmQ-9">
          <mxGeometry relative="1" as="geometry" />
        </mxCell>
        <mxCell id="wDMASdnVmy-ZMWx5fMmQ-14" style="edgeStyle=orthogonalEdgeStyle;rounded=0;orthogonalLoop=1;jettySize=auto;html=1;exitX=0.5;exitY=1;exitDx=0;exitDy=0;entryX=0.5;entryY=0;entryDx=0;entryDy=0;" edge="1" parent="1" source="wDMASdnVmy-ZMWx5fMmQ-1" target="wDMASdnVmy-ZMWx5fMmQ-2">
          <mxGeometry relative="1" as="geometry" />
        </mxCell>
        <mxCell id="wDMASdnVmy-ZMWx5fMmQ-15" style="edgeStyle=orthogonalEdgeStyle;rounded=0;orthogonalLoop=1;jettySize=auto;html=1;exitX=0.5;exitY=1;exitDx=0;exitDy=0;entryX=0.5;entryY=0;entryDx=0;entryDy=0;" edge="1" parent="1" source="wDMASdnVmy-ZMWx5fMmQ-1" target="wDMASdnVmy-ZMWx5fMmQ-10">
          <mxGeometry relative="1" as="geometry" />
        </mxCell>
        <mxCell id="wDMASdnVmy-ZMWx5fMmQ-16" style="edgeStyle=orthogonalEdgeStyle;rounded=0;orthogonalLoop=1;jettySize=auto;html=1;exitX=0.5;exitY=1;exitDx=0;exitDy=0;entryX=0.5;entryY=0;entryDx=0;entryDy=0;" edge="1" parent="1" source="wDMASdnVmy-ZMWx5fMmQ-1" target="wDMASdnVmy-ZMWx5fMmQ-3">
          <mxGeometry relative="1" as="geometry" />
        </mxCell>
        <mxCell id="wDMASdnVmy-ZMWx5fMmQ-1" value="main" style="rounded=1;whiteSpace=wrap;html=1;" vertex="1" parent="1">
          <mxGeometry x="260" y="20" width="120" height="60" as="geometry" />
        </mxCell>
        <mxCell id="wDMASdnVmy-ZMWx5fMmQ-17" style="edgeStyle=orthogonalEdgeStyle;rounded=0;orthogonalLoop=1;jettySize=auto;html=1;exitX=0.5;exitY=1;exitDx=0;exitDy=0;entryX=0.5;entryY=0;entryDx=0;entryDy=0;" edge="1" parent="1" source="wDMASdnVmy-ZMWx5fMmQ-2" target="wDMASdnVmy-ZMWx5fMmQ-7">
          <mxGeometry relative="1" as="geometry" />
        </mxCell>
        <mxCell id="wDMASdnVmy-ZMWx5fMmQ-2" value="UI" style="rounded=1;whiteSpace=wrap;html=1;" vertex="1" parent="1">
          <mxGeometry x="-60" y="130" width="120" height="60" as="geometry" />
        </mxCell>
        <mxCell id="wDMASdnVmy-ZMWx5fMmQ-21" style="edgeStyle=orthogonalEdgeStyle;rounded=0;orthogonalLoop=1;jettySize=auto;html=1;exitX=0.5;exitY=1;exitDx=0;exitDy=0;entryX=0.5;entryY=0;entryDx=0;entryDy=0;" edge="1" parent="1" source="wDMASdnVmy-ZMWx5fMmQ-3" target="wDMASdnVmy-ZMWx5fMmQ-4">
          <mxGeometry relative="1" as="geometry" />
        </mxCell>
        <mxCell id="wDMASdnVmy-ZMWx5fMmQ-22" style="edgeStyle=orthogonalEdgeStyle;rounded=0;orthogonalLoop=1;jettySize=auto;html=1;exitX=0.5;exitY=1;exitDx=0;exitDy=0;entryX=0.5;entryY=0;entryDx=0;entryDy=0;" edge="1" parent="1" source="wDMASdnVmy-ZMWx5fMmQ-3" target="wDMASdnVmy-ZMWx5fMmQ-5">
          <mxGeometry relative="1" as="geometry" />
        </mxCell>
        <mxCell id="wDMASdnVmy-ZMWx5fMmQ-23" style="edgeStyle=orthogonalEdgeStyle;rounded=0;orthogonalLoop=1;jettySize=auto;html=1;exitX=0.5;exitY=1;exitDx=0;exitDy=0;entryX=0.5;entryY=0;entryDx=0;entryDy=0;" edge="1" parent="1" source="wDMASdnVmy-ZMWx5fMmQ-3" target="wDMASdnVmy-ZMWx5fMmQ-12">
          <mxGeometry relative="1" as="geometry" />
        </mxCell>
        <mxCell id="wDMASdnVmy-ZMWx5fMmQ-3" value="parser" style="rounded=1;whiteSpace=wrap;html=1;" vertex="1" parent="1">
          <mxGeometry x="580" y="130" width="120" height="60" as="geometry" />
        </mxCell>
        <mxCell id="wDMASdnVmy-ZMWx5fMmQ-4" value="reader" style="rounded=1;whiteSpace=wrap;html=1;" vertex="1" parent="1">
          <mxGeometry x="490" y="250" width="120" height="60" as="geometry" />
        </mxCell>
        <mxCell id="wDMASdnVmy-ZMWx5fMmQ-5" value="&lt;span style=&quot;white-space-collapse: preserve;&quot; data-src-align=&quot;0:8&quot; class=&quot;aNeGP0gI0B9AV8JaHPyH&quot;&gt;writer&lt;/span&gt;" style="rounded=1;whiteSpace=wrap;html=1;" vertex="1" parent="1">
          <mxGeometry x="670" y="250" width="120" height="60" as="geometry" />
        </mxCell>
        <mxCell id="wDMASdnVmy-ZMWx5fMmQ-6" value="&lt;span style=&quot;white-space-collapse: preserve;&quot; data-src-align=&quot;0:6&quot; class=&quot;aNeGP0gI0B9AV8JaHPyH&quot;&gt;buttons&lt;/span&gt;" style="rounded=1;whiteSpace=wrap;html=1;" vertex="1" parent="1">
          <mxGeometry x="-150" y="370" width="120" height="60" as="geometry" />
        </mxCell>
        <mxCell id="wDMASdnVmy-ZMWx5fMmQ-18" style="edgeStyle=orthogonalEdgeStyle;rounded=0;orthogonalLoop=1;jettySize=auto;html=1;exitX=0.5;exitY=1;exitDx=0;exitDy=0;entryX=0.5;entryY=0;entryDx=0;entryDy=0;" edge="1" parent="1" source="wDMASdnVmy-ZMWx5fMmQ-7" target="wDMASdnVmy-ZMWx5fMmQ-6">
          <mxGeometry relative="1" as="geometry" />
        </mxCell>
        <mxCell id="wDMASdnVmy-ZMWx5fMmQ-19" style="edgeStyle=orthogonalEdgeStyle;rounded=0;orthogonalLoop=1;jettySize=auto;html=1;exitX=0.5;exitY=1;exitDx=0;exitDy=0;entryX=0.5;entryY=0;entryDx=0;entryDy=0;" edge="1" parent="1" source="wDMASdnVmy-ZMWx5fMmQ-7" target="wDMASdnVmy-ZMWx5fMmQ-8">
          <mxGeometry relative="1" as="geometry" />
        </mxCell>
        <mxCell id="wDMASdnVmy-ZMWx5fMmQ-20" style="edgeStyle=orthogonalEdgeStyle;rounded=0;orthogonalLoop=1;jettySize=auto;html=1;exitX=0.5;exitY=1;exitDx=0;exitDy=0;entryX=0.5;entryY=0;entryDx=0;entryDy=0;" edge="1" parent="1" source="wDMASdnVmy-ZMWx5fMmQ-7" target="wDMASdnVmy-ZMWx5fMmQ-11">
          <mxGeometry relative="1" as="geometry" />
        </mxCell>
        <mxCell id="wDMASdnVmy-ZMWx5fMmQ-7" value="&lt;span style=&quot;white-space-collapse: preserve;&quot; data-src-align=&quot;0:4&quot; class=&quot;aNeGP0gI0B9AV8JaHPyH&quot;&gt;windows&lt;/span&gt;" style="rounded=1;whiteSpace=wrap;html=1;" vertex="1" parent="1">
          <mxGeometry x="-60" y="250" width="120" height="60" as="geometry" />
        </mxCell>
        <mxCell id="wDMASdnVmy-ZMWx5fMmQ-8" value="&lt;span style=&quot;white-space-collapse: preserve;&quot; data-src-align=&quot;0:9&quot; class=&quot;aNeGP0gI0B9AV8JaHPyH&quot;&gt;text&lt;/span&gt;&lt;span style=&quot;white-space-collapse: preserve;&quot;&gt; &lt;/span&gt;&lt;span style=&quot;white-space-collapse: preserve;&quot; data-src-align=&quot;10:4&quot; class=&quot;aNeGP0gI0B9AV8JaHPyH&quot;&gt;fields&lt;/span&gt;" style="rounded=1;whiteSpace=wrap;html=1;" vertex="1" parent="1">
          <mxGeometry x="30" y="370" width="120" height="60" as="geometry" />
        </mxCell>
        <mxCell id="wDMASdnVmy-ZMWx5fMmQ-9" value="&lt;span style=&quot;white-space-collapse: preserve;&quot; data-src-align=&quot;12:7&quot; class=&quot;aNeGP0gI0B9AV8JaHPyH&quot;&gt;task&lt;/span&gt;&lt;span style=&quot;white-space-collapse: preserve;&quot;&gt; &lt;/span&gt;&lt;span style=&quot;white-space-collapse: preserve;&quot; data-src-align=&quot;0:8&quot; class=&quot;aNeGP0gI0B9AV8JaHPyH&quot;&gt;manager&lt;/span&gt;" style="rounded=1;whiteSpace=wrap;html=1;" vertex="1" parent="1">
          <mxGeometry x="170" y="130" width="120" height="60" as="geometry" />
        </mxCell>
        <mxCell id="wDMASdnVmy-ZMWx5fMmQ-10" value="&lt;span style=&quot;white-space-collapse: preserve;&quot;&gt;file &lt;/span&gt;&lt;span style=&quot;white-space-collapse: preserve;&quot; data-src-align=&quot;0:8&quot; class=&quot;aNeGP0gI0B9AV8JaHPyH&quot;&gt;manager&lt;/span&gt;" style="rounded=1;whiteSpace=wrap;html=1;" vertex="1" parent="1">
          <mxGeometry x="354" y="130" width="120" height="60" as="geometry" />
        </mxCell>
        <mxCell id="wDMASdnVmy-ZMWx5fMmQ-11" value="&lt;span style=&quot;white-space-collapse: preserve;&quot; data-src-align=&quot;11:7&quot; class=&quot;aNeGP0gI0B9AV8JaHPyH&quot;&gt;click&lt;/span&gt;&lt;span style=&quot;white-space-collapse: preserve;&quot;&gt; &lt;/span&gt;&lt;span style=&quot;white-space-collapse: preserve;&quot; data-src-align=&quot;0:10&quot; class=&quot;aNeGP0gI0B9AV8JaHPyH&quot;&gt;handler&lt;/span&gt;" style="rounded=1;whiteSpace=wrap;html=1;" vertex="1" parent="1">
          <mxGeometry x="-60" y="450" width="120" height="60" as="geometry" />
        </mxCell>
        <mxCell id="wDMASdnVmy-ZMWx5fMmQ-12" value="&lt;span style=&quot;white-space-collapse: preserve;&quot; data-src-align=&quot;0:11&quot; class=&quot;aNeGP0gI0B9AV8JaHPyH&quot;&gt;database&lt;/span&gt;" style="rounded=1;whiteSpace=wrap;html=1;" vertex="1" parent="1">
          <mxGeometry x="580" y="330" width="120" height="60" as="geometry" />
        </mxCell>
      </root>
    </mxGraphModel>
  </diagram>
</mxfile>
